<svg width="17" height="17" viewBox="0 0 17 17" fill="none" xmlns="http://www.w3.org/2000/svg">
<path fill-rule="evenodd" clip-rule="evenodd" d="M12.0415 2.63643V6.53014L14.0702 7.0373C14.3 7.09479 14.504 7.22745 14.6498 7.41418C14.7956 7.60091 14.8748 7.83102 14.8748 8.06793V13.4583C15.0627 13.4583 15.2429 13.533 15.3757 13.6658C15.5085 13.7986 15.5832 13.9788 15.5832 14.1667C15.5832 14.3545 15.5085 14.5347 15.3757 14.6675C15.2429 14.8004 15.0627 14.875 14.8748 14.875H2.12484C1.93698 14.875 1.75681 14.8004 1.62397 14.6675C1.49113 14.5347 1.4165 14.3545 1.4165 14.1667C1.4165 13.9788 1.49113 13.7986 1.62397 13.6658C1.75681 13.533 1.93698 13.4583 2.12484 13.4583V8.01126C2.12471 7.81372 2.17966 7.62005 2.28351 7.45201C2.38737 7.28397 2.53601 7.14821 2.71275 7.05997L4.95817 5.93726V4.4958C4.95808 4.27948 5.02402 4.06829 5.14718 3.89045C5.27034 3.71261 5.44485 3.5766 5.64738 3.5006L10.6057 1.64122C10.7665 1.58088 10.9395 1.56042 11.1099 1.58159C11.2804 1.60275 11.4431 1.66491 11.5843 1.76275C11.7254 1.86058 11.8408 1.99117 11.9204 2.14333C12 2.2955 12.0416 2.46469 12.0415 2.63643ZM12.0415 7.99072V13.4583H13.4582V8.34418L12.0415 7.99072ZM4.95817 7.5211L3.5415 8.22943V13.4583H4.95817V7.5211Z" fill="white"/>
</svg>
