<svg width="18" height="17" viewBox="0 0 18 17" fill="none" xmlns="http://www.w3.org/2000/svg">
<path d="M3.33301 7.08341C3.33301 4.41229 3.33301 3.07637 4.16317 2.24691C4.99334 1.41746 6.32855 1.41675 8.99967 1.41675C11.6708 1.41675 13.0067 1.41675 13.8362 2.24691C14.6656 3.07708 14.6663 4.41229 14.6663 7.08341V8.50008C14.6663 11.1712 14.6663 12.5071 13.8362 13.3366C13.006 14.166 11.6708 14.1667 8.99967 14.1667C6.32855 14.1667 4.99263 14.1667 4.16317 13.3366C3.33372 12.5064 3.33301 11.1712 3.33301 8.50008V7.08341Z" stroke="white" stroke-width="1.0625"/>
<path d="M11.479 11.3333H12.5415M5.45817 11.3333H6.52067M4.74984 13.8125V14.875C4.74984 15.0629 4.82447 15.243 4.9573 15.3759C5.09014 15.5087 5.27031 15.5833 5.45817 15.5833H6.52067C6.70853 15.5833 6.8887 15.5087 7.02154 15.3759C7.15438 15.243 7.229 15.0629 7.229 14.875V14.1667M13.2498 13.8125V14.875C13.2498 15.0629 13.1752 15.243 13.0424 15.3759C12.9095 15.5087 12.7294 15.5833 12.5415 15.5833H11.479C11.2911 15.5833 11.111 15.5087 10.9781 15.3759C10.8453 15.243 10.7707 15.0629 10.7707 14.875V14.1667M14.6665 6.375H15.3748C15.5627 6.375 15.7429 6.44963 15.8757 6.58247C16.0085 6.7153 16.0832 6.89547 16.0832 7.08333V7.79167C16.0832 7.90163 16.0576 8.01009 16.0084 8.10844C15.9592 8.2068 15.8878 8.29235 15.7998 8.35833L14.6665 9.20833H3.33317L2.19984 8.35833C2.11187 8.29235 2.04046 8.2068 1.99128 8.10844C1.94211 8.01009 1.9165 7.90163 1.9165 7.79167V7.08333C1.9165 6.89547 1.99113 6.7153 2.12397 6.58247C2.25681 6.44963 2.43698 6.375 2.62484 6.375H3.33317" stroke="white" stroke-width="1.0625" stroke-linecap="round" stroke-linejoin="round"/>
<path d="M14.3125 3.54175H3.6875" stroke="white" stroke-width="1.0625" stroke-linecap="round"/>
</svg>
