<svg width="15" height="15" viewBox="0 0 15 15" fill="none" xmlns="http://www.w3.org/2000/svg">
<path d="M1.25 7.5C1.25 5.14313 1.25 3.96437 1.9825 3.2325C2.715 2.50062 3.89313 2.5 6.25 2.5H8.75C11.1069 2.5 12.2856 2.5 13.0175 3.2325C13.7494 3.965 13.75 5.14313 13.75 7.5V8.75C13.75 11.1069 13.75 12.2856 13.0175 13.0175C12.285 13.7494 11.1069 13.75 8.75 13.75H6.25C3.89313 13.75 2.71437 13.75 1.9825 13.0175C1.25062 12.285 1.25 11.1069 1.25 8.75V7.5Z" stroke="white" stroke-width="1.0625"/>
<path d="M4.375 2.5V1.5625M10.625 2.5V1.5625M1.5625 5.625H13.4375" stroke="white" stroke-width="1.0625" stroke-linecap="round"/>
<path d="M11.25 10.625C11.25 10.7908 11.1842 10.9497 11.0669 11.0669C10.9497 11.1842 10.7908 11.25 10.625 11.25C10.4592 11.25 10.3003 11.1842 10.1831 11.0669C10.0658 10.9497 10 10.7908 10 10.625C10 10.4592 10.0658 10.3003 10.1831 10.1831C10.3003 10.0658 10.4592 10 10.625 10C10.7908 10 10.9497 10.0658 11.0669 10.1831C11.1842 10.3003 11.25 10.4592 11.25 10.625ZM11.25 8.125C11.25 8.29076 11.1842 8.44973 11.0669 8.56694C10.9497 8.68415 10.7908 8.75 10.625 8.75C10.4592 8.75 10.3003 8.68415 10.1831 8.56694C10.0658 8.44973 10 8.29076 10 8.125C10 7.95924 10.0658 7.80027 10.1831 7.68306C10.3003 7.56585 10.4592 7.5 10.625 7.5C10.7908 7.5 10.9497 7.56585 11.0669 7.68306C11.1842 7.80027 11.25 7.95924 11.25 8.125ZM8.125 10.625C8.125 10.7908 8.05915 10.9497 7.94194 11.0669C7.82473 11.1842 7.66576 11.25 7.5 11.25C7.33424 11.25 7.17527 11.1842 7.05806 11.0669C6.94085 10.9497 6.875 10.7908 6.875 10.625C6.875 10.4592 6.94085 10.3003 7.05806 10.1831C7.17527 10.0658 7.33424 10 7.5 10C7.66576 10 7.82473 10.0658 7.94194 10.1831C8.05915 10.3003 8.125 10.4592 8.125 10.625ZM8.125 8.125C8.125 8.29076 8.05915 8.44973 7.94194 8.56694C7.82473 8.68415 7.66576 8.75 7.5 8.75C7.33424 8.75 7.17527 8.68415 7.05806 8.56694C6.94085 8.44973 6.875 8.29076 6.875 8.125C6.875 7.95924 6.94085 7.80027 7.05806 7.68306C7.17527 7.56585 7.33424 7.5 7.5 7.5C7.66576 7.5 7.82473 7.56585 7.94194 7.68306C8.05915 7.80027 8.125 7.95924 8.125 8.125ZM5 10.625C5 10.7908 4.93415 10.9497 4.81694 11.0669C4.69973 11.1842 4.54076 11.25 4.375 11.25C4.20924 11.25 4.05027 11.1842 3.93306 11.0669C3.81585 10.9497 3.75 10.7908 3.75 10.625C3.75 10.4592 3.81585 10.3003 3.93306 10.1831C4.05027 10.0658 4.20924 10 4.375 10C4.54076 10 4.69973 10.0658 4.81694 10.1831C4.93415 10.3003 5 10.4592 5 10.625ZM5 8.125C5 8.29076 4.93415 8.44973 4.81694 8.56694C4.69973 8.68415 4.54076 8.75 4.375 8.75C4.20924 8.75 4.05027 8.68415 3.93306 8.56694C3.81585 8.44973 3.75 8.29076 3.75 8.125C3.75 7.95924 3.81585 7.80027 3.93306 7.68306C4.05027 7.56585 4.20924 7.5 4.375 7.5C4.54076 7.5 4.69973 7.56585 4.81694 7.68306C4.93415 7.80027 5 7.95924 5 8.125Z" fill="white"/>
</svg>
