<svg width="17" height="17" viewBox="0 0 17 17" fill="none" xmlns="http://www.w3.org/2000/svg">
<path d="M13.8393 2.63711C12.9185 3.35678 12.0905 3.5197 11.2936 3.43328C10.4578 3.34332 9.63467 2.97995 8.71667 2.57053L8.67913 2.55353C7.80434 2.16253 6.83746 1.73045 5.82029 1.62066C4.75 1.5052 3.64571 1.74532 2.506 2.6364C2.44244 2.68611 2.39103 2.74964 2.35569 2.82217C2.32034 2.89471 2.30198 2.97434 2.302 3.05503V14.875C2.302 15.0159 2.35797 15.151 2.4576 15.2506C2.55723 15.3503 2.69236 15.4062 2.83325 15.4062C2.97415 15.4062 3.10927 15.3503 3.2089 15.2506C3.30853 15.151 3.3645 15.0159 3.3645 14.875V11.3787C4.20459 10.7872 4.96817 10.654 5.70625 10.7341C6.54209 10.8233 7.36517 11.1867 8.28317 11.5968L8.32071 11.6131C9.1955 12.0048 10.1624 12.4362 11.1795 12.546C12.2498 12.6614 13.3541 12.4213 14.4938 11.5302C14.5574 11.4805 14.6088 11.417 14.6441 11.3445C14.6795 11.2719 14.6979 11.1923 14.6978 11.1116V3.05503C14.6977 2.95551 14.6697 2.85802 14.6169 2.77367C14.564 2.68932 14.4886 2.6215 14.3991 2.57794C14.3096 2.53438 14.2097 2.51684 14.1107 2.5273C14.0118 2.53776 13.9177 2.57581 13.8393 2.63711Z" fill="#D9D9D9"/>
</svg>
