<svg width="17" height="18" viewBox="0 0 17 18" fill="none" xmlns="http://www.w3.org/2000/svg">
<path d="M5.39534 11.2493L5.06799 10.882L5.82822 10.0193L6.15414 10.3866L5.39534 11.2493ZM3.97035 10.7279L2.59848 11.5704L2.08519 10.5017L3.45634 9.66007L3.97035 10.7279ZM2.33501 13.2439L3.3544 14.3897L2.5956 15.2516L1.57621 14.1067L2.33501 13.2439ZM3.97609 14.7578C5.01702 14.868 7.70907 14.7699 10.6251 11.4958L11.3846 12.3577C8.20297 15.931 5.17423 16.1062 3.87559 15.9692L3.97609 14.7578ZM10.6251 11.4958C13.404 8.37409 13.8649 5.74943 13.9223 4.61021L14.9977 4.67913C14.9259 6.11268 14.3552 9.02194 11.3846 12.3577L10.6251 11.4958ZM9.63802 6.48485L9.43199 6.25295L10.1901 5.39104L10.3961 5.62212L9.63802 6.48485ZM9.26831 3.30558L10.1728 1.94014L11.035 2.66989L10.1305 4.03452L9.26831 3.30558ZM13.2174 1.64256L14.3444 2.90746L13.5849 3.77018L12.4586 2.50529L13.2174 1.64256ZM10.0171 6.05349C10.3975 5.62212 10.3975 5.62212 10.3975 5.62375H10.399L10.4011 5.62699C10.4352 5.66584 10.4658 5.70849 10.4923 5.75429C10.5311 5.81916 10.5734 5.90429 10.6093 6.01214C10.6967 6.29051 10.7185 6.58978 10.6725 6.88054C10.5763 7.58191 10.1484 8.50869 9.05295 9.73953L8.29343 8.8768C9.31928 7.72542 9.56336 7.02486 9.60859 6.69404C9.63012 6.53674 9.60787 6.4589 9.60141 6.44106C9.5971 6.43025 9.5971 6.42863 9.60141 6.4362C9.60781 6.44739 9.61501 6.45797 9.62294 6.46782L9.63012 6.47593L9.6373 6.48323L10.0171 6.05349ZM9.05295 9.73953C7.95674 10.9704 7.1319 11.4504 6.51021 11.5574C6.19219 11.6126 5.93591 11.5688 5.74136 11.4869C5.63239 11.4419 5.53057 11.3772 5.43985 11.2955L5.40396 11.259L5.39893 11.2542L5.39678 11.2517L5.39606 11.2501C5.39606 11.2501 5.39534 11.2493 5.7751 10.8179C6.15558 10.3866 6.15342 10.3858 6.15342 10.3858L6.15199 10.3841L6.15055 10.3825L6.14625 10.3785L6.13907 10.3704L6.11179 10.346C6.10509 10.3412 6.10676 10.3417 6.11681 10.3477C6.13476 10.355 6.20511 10.3801 6.34653 10.3558C6.64374 10.3039 7.26829 10.0282 8.29343 8.8768L9.05295 9.73953ZM10.1728 1.93933C10.9051 0.836594 12.3437 0.661455 13.2174 1.64256L12.4586 2.50529C12.0767 2.07636 11.399 2.12095 11.035 2.66989L10.1728 1.93933ZM13.9216 4.61102C13.936 4.33047 13.8218 4.03695 13.5849 3.771L14.3452 2.90827C14.7307 3.34125 15.0343 3.95424 14.9977 4.67913L13.9216 4.61102ZM3.3544 14.3897C3.5511 14.6118 3.7636 14.7367 3.97537 14.7586L3.87559 15.9692C3.34794 15.9132 2.9165 15.6132 2.59489 15.2524L3.3544 14.3897ZM9.43199 6.25295C8.72487 5.45915 8.67247 4.20479 9.26759 3.30639L10.1298 4.03533C9.84046 4.47236 9.88353 5.04562 10.1908 5.39185L9.43199 6.25295ZM2.59776 11.5712C2.01125 11.9312 1.92008 12.7793 2.3343 13.2448L1.57478 14.1067C0.612816 13.0258 0.909302 11.2234 2.08447 10.5025L2.59776 11.5712ZM5.06799 10.8828C4.79232 10.5731 4.34867 10.4968 3.96963 10.7287L3.45563 9.66088C4.23381 9.18249 5.19864 9.31465 5.82751 10.0201L5.06799 10.8828Z" fill="#212E45"/>
</svg>
