<svg width="23" height="23" viewBox="0 0 23 23" fill="none" xmlns="http://www.w3.org/2000/svg">
<path d="M11.5003 3.83325H4.79199C4.02949 3.83325 3.29823 4.13615 2.75906 4.67532C2.21989 5.21449 1.91699 5.94575 1.91699 6.70825V14.3749C1.91699 15.1374 2.21989 15.8687 2.75906 16.4079C3.29823 16.947 3.07116 17.2212 3.83366 17.2212V18.0896V18.1819C3.83366 18.6337 4.19988 18.9999 4.65165 18.9999C5.10341 18.9999 5.46964 18.6337 5.46964 18.1819V17.2499H8.62533V12.4583H3.83366V5.74992H12.4587V7.66659H14.3753V6.70825C14.3753 5.94575 14.0724 5.21449 13.5333 4.67532C12.9941 4.13615 12.2628 3.83325 11.5003 3.83325ZM4.79199 13.4166C5.04616 13.4166 5.28991 13.5176 5.46964 13.6973C5.64936 13.877 5.75033 14.1208 5.75033 14.3749C5.75033 14.6291 5.64936 14.8728 5.46964 15.0526C5.28991 15.2323 5.04616 15.3333 4.79199 15.3333C4.53783 15.3333 4.29407 15.2323 4.11435 15.0526C3.93463 14.8728 3.83366 14.6291 3.83366 14.3749C3.83366 14.1208 3.93463 13.877 4.11435 13.6973C4.29407 13.5176 4.53783 13.4166 4.79199 13.4166ZM19.7132 9.25742C19.5791 8.87409 19.2149 8.62492 18.7837 8.62492H11.8932C11.4524 8.62492 11.0978 8.87409 10.9541 9.25742L9.58366 13.1962V18.4766C9.58366 18.8408 9.89033 19.1666 10.2545 19.1666H10.8487C11.2128 19.1666 11.5003 18.8024 11.5003 18.4383V17.2499H19.167V18.4383C19.167 18.8024 19.4641 19.1666 19.8282 19.1666H20.4128C20.777 19.1666 21.0837 18.8408 21.0837 18.4766V13.1962L19.7132 9.25742ZM11.8932 9.58325H18.7837L19.7707 12.4583H10.9062L11.8932 9.58325ZM11.5003 15.3333C11.2462 15.3333 11.0024 15.2323 10.8227 15.0526C10.643 14.8728 10.542 14.6291 10.542 14.3749C10.542 14.1208 10.643 13.877 10.8227 13.6973C11.0024 13.5176 11.2462 13.4166 11.5003 13.4166C11.7545 13.4166 11.9982 13.5176 12.178 13.6973C12.3577 13.877 12.4587 14.1208 12.4587 14.3749C12.4587 14.6291 12.3577 14.8728 12.178 15.0526C11.9982 15.2323 11.7545 15.3333 11.5003 15.3333ZM19.167 15.3333C18.9128 15.3333 18.6691 15.2323 18.4893 15.0526C18.3096 14.8728 18.2087 14.6291 18.2087 14.3749C18.2087 14.1208 18.3096 13.877 18.4893 13.6973C18.6691 13.5176 18.9128 13.4166 19.167 13.4166C19.4212 13.4166 19.6649 13.5176 19.8446 13.6973C20.0244 13.877 20.1253 14.1208 20.1253 14.3749C20.1253 14.6291 20.0244 14.8728 19.8446 15.0526C19.6649 15.2323 19.4212 15.3333 19.167 15.3333Z" fill="white"/>
</svg>
