<svg width="15" height="14" viewBox="0 0 15 14" fill="none" xmlns="http://www.w3.org/2000/svg">
<path id="Vector" fill-rule="evenodd" clip-rule="evenodd" d="M10.625 1.06294V4.95665L12.6537 5.46382C12.8835 5.52131 13.0875 5.65396 13.2333 5.84069C13.3791 6.02743 13.4583 6.25753 13.4583 6.49444V11.8849C13.6462 11.8849 13.8264 11.9595 13.9592 12.0923C14.092 12.2252 14.1667 12.4053 14.1667 12.5932C14.1667 12.7811 14.092 12.9612 13.9592 13.0941C13.8264 13.2269 13.6462 13.3015 13.4583 13.3015H0.708333C0.520472 13.3015 0.340304 13.2269 0.207466 13.0941C0.0746277 12.9612 0 12.7811 0 12.5932C0 12.4053 0.0746277 12.2252 0.207466 12.0923C0.340304 11.9595 0.520472 11.8849 0.708333 11.8849V6.43778C0.708208 6.24023 0.763158 6.04657 0.867011 5.87852C0.970864 5.71048 1.11951 5.57472 1.29625 5.48648L3.54167 4.36378V2.92232C3.54158 2.706 3.60752 2.4948 3.73068 2.31696C3.85384 2.13912 4.02834 2.00311 4.23088 1.92711L9.18921 0.0677341C9.35 0.00739694 9.52302 -0.0130653 9.69345 0.00810015C9.86387 0.0292656 10.0266 0.091428 10.1678 0.189262C10.3089 0.287097 10.4243 0.417688 10.5039 0.569848C10.5835 0.722009 10.6251 0.891205 10.625 1.06294ZM10.625 6.41723V11.8849H12.0417V6.77069L10.625 6.41723ZM3.54167 5.94761L2.125 6.65594V11.8849H3.54167V5.94761Z" fill="white"/>
</svg>
