<svg xmlns="http://www.w3.org/2000/svg" style="display: none;">
  <symbol id="solar--bus-linear" viewBox="0 0 24 24">
    <g fill="none" stroke="currentColor" stroke-width="1.5">
      <path d="M4 10c0-3.771 0-5.657 1.172-6.828S8.229 2 12 2s5.657 0 6.828 1.172S20 6.229 20 10v2c0 3.771 0 5.657-1.172 6.828S15.771 20 12 20s-5.657 0-6.828-1.172S4 15.771 4 12z"/>
      <path stroke-linecap="round" stroke-linejoin="round" d="M4 13h16m-4.5 3H17M7 16h1.5M6 19.5V21a1 1 0 0 0 1 1h1.5a1 1 0 0 0 1-1v-1m8.5-.5V21a1 1 0 0 1-1 1h-1.5a1 1 0 0 1-1-1v-1M20 9h1a1 1 0 0 1 1 1v1a1 1 0 0 1-.4.8L20 13M4 9H3a1 1 0 0 0-1 1v1a1 1 0 0 0 .4.8L4 13"/>
      <path stroke-linecap="round" d="M19.5 5h-15"/>
    </g>
  </symbol>

  <symbol id="material-symbols-light--info-outline" viewBox="0 0 24 24"><path fill="none" stroke="currentColor" stroke-width="1.5" d="M11.5 16.5h1V11h-1zm.5-6.923q.262 0 .439-.177t.176-.439t-.177-.438T12 8.346t-.438.177t-.177.439t.177.438t.438.177M12.003 21q-1.867 0-3.51-.708q-1.643-.709-2.859-1.924t-1.925-2.856T3 12.003t.709-3.51Q4.417 6.85 5.63 5.634t2.857-1.925T11.997 3t3.51.709q1.643.708 2.859 1.922t1.925 2.857t.709 3.509t-.708 3.51t-1.924 2.859t-2.856 1.925t-3.509.709M12 20q3.35 0 5.675-2.325T20 12t-2.325-5.675T12 4T6.325 6.325T4 12t2.325 5.675T12 20m0-8"/></symbol>
<symbol id="mingcute--seat-fill" viewBox="0 0 24 24">
	<g fill="none">
		<path d="m12.593 23.258l-.011.002l-.071.035l-.02.004l-.014-.004l-.071-.035q-.016-.005-.024.005l-.004.01l-.017.428l.005.02l.01.013l.104.074l.015.004l.012-.004l.104-.074l.012-.016l.004-.017l-.017-.427q-.004-.016-.017-.018m.265-.113l-.013.002l-.185.093l-.01.01l-.003.011l.018.43l.005.012l.008.007l.201.093q.019.005.029-.008l.004-.014l-.034-.614q-.005-.018-.02-.022m-.715.002a.02.02 0 0 0-.027.006l-.006.014l-.034.614q.001.018.017.024l.015-.002l.201-.093l.01-.008l.004-.011l.017-.43l-.003-.012l-.01-.01z" />
		<path fill="currentColor" d="M3.468 16.745c.495-.958 1.54-1.6 2.804-1.441a34 34 0 0 1 3.97.726c2.01.502 3.771 1.467 5.073 2.348l.44.306l.4.295l.358.276l.314.254l.267.226l.22.192c.843.751.27 1.978-.685 2.068l-.112.005H7.923c-1.682 0-3.08-.845-4.104-2.126c-.774-.967-.84-2.183-.35-3.129ZM19 2c.893 0 1.278.84 1.467 1.61l.06.268l.024.128c.144.797.221 1.842.252 2.916c.06 2.125-.062 4.602-.327 5.795c-.462 2.082-1.14 3.529-1.952 4.401c-.826.89-1.942 1.291-2.971.776c-.789-.394-1.26-1.331-1.518-2.13a5.73 5.73 0 0 1 .017-3.58c.21-.632.588-1.142 1.004-1.627l.363-.411c.442-.495.885-.99 1.187-1.593c.44-.88.56-1.843.597-2.81l.014-.58l.009-.56l.006-.138l.02-.28C17.347 3.107 17.716 2 19 2" />
	</g>
  </symbol>
<symbol id="solar--arrow-left-broken" viewBox="0 0 24 24">
  <g fill="currentColor" stroke="currentColor" stroke-width="1.5">
	<path  stroke-linecap="round" stroke-linejoin="round"  d="m4 12l6-6m-6 6l6 6m-6-6h10.5m5.5 0h-2.5" />
  </g>
</symbol>
<symbol id="icon-park-outline--switch" viewBox="0 0 48 48">
	<path fill="none" stroke="currentColor" stroke-linecap="round" stroke-linejoin="round" stroke-width="4" d="M42 19H6M30 7l12 12M6.799 29h36m-36 0l12 12" />
</symbol>
<symbol id="lets-icons--check-ring-round" viewBox="0 0 24 24">
	<g fill="none" stroke="currentColor" stroke-linecap="round" stroke-width="1.5">
		<path d="M12 21a9 9 0 1 0-6.364-2.636" />
		<path d="m16 10l-3.598 4.318c-.655.786-.983 1.18-1.424 1.2s-.803-.343-1.527-1.067L8 13" />
	</g>
</symbol>
</svg>